<?xml version="1.0" encoding="UTF-8"?>
<svg height="128px" viewBox="0 0 128 128" width="128px" xmlns="http://www.w3.org/2000/svg" xmlns:xlink="http://www.w3.org/1999/xlink">
    <filter id="a" height="100%" width="100%" x="0%" y="0%">
        <feColorMatrix color-interpolation-filters="sRGB" values="0 0 0 0 1 0 0 0 0 1 0 0 0 0 1 0 0 0 1 0"/>
    </filter>
    <clipPath id="b">
        <rect height="128" width="128"/>
    </clipPath>
    <clipPath id="c">
        <rect height="128" width="128"/>
    </clipPath>
    <mask id="d">
        <g filter="url(#a)">
            <g clip-path="url(#c)" filter="url(#a)">
                <g clip-path="url(#b)">
                    <path d="m 24 48 h 48 c 8.835938 0 16 7.164062 16 16 v 32 c 0 8.835938 -7.164062 16 -16 16 h -48 c -8.835938 0 -16 -7.164062 -16 -16 v -32 c 0 -8.835938 7.164062 -16 16 -16 z m 0 0" fill="#c0bfbc"/>
                    <path d="m 24 48 h 48 c 8.835938 0 16 7.164062 16 16 v 32 c 0 8.835938 -7.164062 16 -16 16 h -48 c -8.835938 0 -16 -7.164062 -16 -16 v -32 c 0 -8.835938 7.164062 -16 16 -16 z m 0 0" fill="#c0bfbc"/>
                    <path d="m 24 102 v 22 l 26 -22 z m 0 0" fill="#c0bfbc" fill-rule="evenodd"/>
                    <path d="m 24 100 v 22 l 26 -22 z m 0 0" fill="#f6f5f4" fill-rule="evenodd"/>
                    <path d="m 24 36 h 48 c 8.835938 0 16 7.363281 16 16.445312 v 41.109376 c 0 9.082031 -7.164062 16.445312 -16 16.445312 h -48 c -8.835938 0 -16 -7.363281 -16 -16.445312 v -41.109376 c 0 -9.082031 7.164062 -16.445312 16 -16.445312 z m 0 0" fill="#f6f5f4"/>
                    <path d="m 104 78 v 22 l -26 -22 z m 0 0" fill="#26a269" fill-rule="evenodd"/>
                    <path d="m 56 24 h 48 c 8.835938 0 16 7.164062 16 16 v 32 c 0 8.835938 -7.164062 16 -16 16 h -48 c -8.835938 0 -16 -7.164062 -16 -16 v -32 c 0 -8.835938 7.164062 -16 16 -16 z m 0 0" fill="#26a269"/>
                    <path d="m 56 12 h 48 c 8.835938 0 16 7.363281 16 16.445312 v 41.109376 c 0 9.082031 -7.164062 16.445312 -16 16.445312 h -48 c -8.835938 0 -16 -7.363281 -16 -16.445312 v -41.109376 c 0 -9.082031 7.164062 -16.445312 16 -16.445312 z m 0 0" fill="#2ec27e"/>
                    <path d="m 104 76 v 22 l -26 -22 z m 0 0" fill="#2ec27e" fill-rule="evenodd"/>
                    <path d="m 72 34 c -2.210938 0 -4 1.789062 -4 4 s 1.789062 4 4 4 s 4 -1.789062 4 -4 s -1.789062 -4 -4 -4 z m 0 0" fill="#ffffff"/>
                    <path d="m 88 34 c -2.210938 0 -4 1.789062 -4 4 s 1.789062 4 4 4 s 4 -1.789062 4 -4 s -1.789062 -4 -4 -4 z m 0 0" fill="#ffffff"/>
                    <path d="m 812.000023 1787.999969 c 0 4.289063 -2.289063 8.25 -6 10.390625 c -3.710938 2.144532 -8.289063 2.144532 -12 0 c -3.710938 -2.140625 -6 -6.101562 -6 -10.390625" fill="none" stroke="#ffffff" stroke-linejoin="bevel" stroke-width="6" transform="matrix(1 0 0 1 -720.000023 -1739.999969)"/>
                </g>
            </g>
        </g>
    </mask>
    <mask id="e">
        <g filter="url(#a)">
            <rect fill-opacity="0.8" height="184.32" width="184.32" x="-28.16" y="-28.16"/>
        </g>
    </mask>
    <linearGradient id="f" gradientTransform="matrix(0 0.37 -0.98462 0 295.38501 -30.360001)" gradientUnits="userSpaceOnUse" x1="300" x2="428" y1="235" y2="235">
        <stop offset="0" stop-color="#f9f06b"/>
        <stop offset="1" stop-color="#f5c211"/>
    </linearGradient>
    <clipPath id="g">
        <rect height="128" width="128"/>
    </clipPath>
    <clipPath id="h">
        <rect height="128" width="128"/>
    </clipPath>
    <g fill="#c0bfbc">
        <path d="m 24 48 h 48 c 8.835938 0 16 7.164062 16 16 v 32 c 0 8.835938 -7.164062 16 -16 16 h -48 c -8.835938 0 -16 -7.164062 -16 -16 v -32 c 0 -8.835938 7.164062 -16 16 -16 z m 0 0"/>
        <path d="m 24 48 h 48 c 8.835938 0 16 7.164062 16 16 v 32 c 0 8.835938 -7.164062 16 -16 16 h -48 c -8.835938 0 -16 -7.164062 -16 -16 v -32 c 0 -8.835938 7.164062 -16 16 -16 z m 0 0"/>
        <path d="m 24 102 v 22 l 26 -22 z m 0 0" fill-rule="evenodd"/>
    </g>
    <path d="m 24 100 v 22 l 26 -22 z m 0 0" fill="#f6f5f4" fill-rule="evenodd"/>
    <path d="m 24 36 h 48 c 8.835938 0 16 7.363281 16 16.445312 v 41.109376 c 0 9.082031 -7.164062 16.445312 -16 16.445312 h -48 c -8.835938 0 -16 -7.363281 -16 -16.445312 v -41.109376 c 0 -9.082031 7.164062 -16.445312 16 -16.445312 z m 0 0" fill="#f6f5f4"/>
    <path d="m 104 78 v 22 l -26 -22 z m 0 0" fill="#26a269" fill-rule="evenodd"/>
    <path d="m 56 24 h 48 c 8.835938 0 16 7.164062 16 16 v 32 c 0 8.835938 -7.164062 16 -16 16 h -48 c -8.835938 0 -16 -7.164062 -16 -16 v -32 c 0 -8.835938 7.164062 -16 16 -16 z m 0 0" fill="#26a269"/>
    <path d="m 56 12 h 48 c 8.835938 0 16 7.363281 16 16.445312 v 41.109376 c 0 9.082031 -7.164062 16.445312 -16 16.445312 h -48 c -8.835938 0 -16 -7.363281 -16 -16.445312 v -41.109376 c 0 -9.082031 7.164062 -16.445312 16 -16.445312 z m 0 0" fill="#2ec27e"/>
    <path d="m 104 76 v 22 l -26 -22 z m 0 0" fill="#2ec27e" fill-rule="evenodd"/>
    <path d="m 72 34 c -2.210938 0 -4 1.789062 -4 4 s 1.789062 4 4 4 s 4 -1.789062 4 -4 s -1.789062 -4 -4 -4 z m 0 0" fill="#ffffff"/>
    <path d="m 88 34 c -2.210938 0 -4 1.789062 -4 4 s 1.789062 4 4 4 s 4 -1.789062 4 -4 s -1.789062 -4 -4 -4 z m 0 0" fill="#ffffff"/>
    <path d="m 92 48 c 0 4.289063 -2.289063 8.25 -6 10.390625 c -3.710938 2.144532 -8.289063 2.144532 -12 0 c -3.710938 -2.140625 -6 -6.101562 -6 -10.390625" fill="none" stroke="#ffffff" stroke-linejoin="bevel" stroke-width="6"/>
    <g mask="url(#d)">
        <g clip-path="url(#h)">
            <g mask="url(#e)">
                <g clip-path="url(#g)">
                    <path d="m 128 80.640625 v 47.359375 h -128 v -47.359375 z m 0 0" fill="url(#f)"/>
                    <path d="m 13.308594 80.640625 l 47.355468 47.359375 h 21.214844 l -47.359375 -47.359375 z m 42.421875 0 l 47.363281 47.359375 h 21.214844 l -47.363282 -47.359375 z m 42.429687 0 l 29.839844 29.839844 v -21.210938 l -8.628906 -8.628906 z m -98.160156 7.90625 v 21.214844 l 18.238281 18.238281 h 21.214844 z m 0 0"/>
                </g>
            </g>
        </g>
    </g>
</svg>
